<svg width="818" height="410" viewBox="0 0 818 410" fill="none" xmlns="http://www.w3.org/2000/svg">
<rect width="1131" height="60" transform="translate(-244.54 354.69) rotate(-23.3607)" fill="#121217"/>
<path d="M-53.5887 313.921C-54.3672 314.257 -55.1355 314.475 -55.8937 314.576C-56.6518 314.677 -57.3683 314.673 -58.043 314.563C-58.724 314.439 -59.3328 314.24 -59.8693 313.967C-60.3911 313.687 -60.8049 313.334 -61.1108 312.908L-58.5391 310.752C-58.1324 311.169 -57.6074 311.456 -56.9641 311.614C-56.3271 311.757 -55.6382 311.677 -54.8975 311.375C-54.1126 311.053 -53.554 310.611 -53.2215 310.05C-52.8744 309.481 -52.8214 308.918 -53.0624 308.36C-53.2718 307.875 -53.6446 307.557 -54.1807 307.405C-54.7085 307.232 -55.3484 307.204 -56.1001 307.319L-58.3335 307.656C-59.1651 307.789 -59.9498 307.788 -60.6876 307.654C-61.4317 307.504 -62.0891 307.213 -62.6597 306.78C-63.2302 306.347 -63.6805 305.748 -64.0104 304.984C-64.6385 303.53 -64.6496 302.193 -64.0438 300.973C-63.4296 299.731 -62.2413 298.73 -60.4786 297.969C-59.4945 297.544 -58.5718 297.32 -57.7105 297.296C-56.8408 297.252 -56.0421 297.386 -55.3143 297.699C-54.5865 298.012 -53.935 298.471 -53.3597 299.077L-55.8999 301.246C-56.2919 300.823 -56.799 300.536 -57.4213 300.387C-58.0436 300.237 -58.7146 300.318 -59.4343 300.629C-60.1687 300.946 -60.676 301.366 -60.956 301.887C-61.2214 302.403 -61.2208 302.969 -60.9544 303.586C-60.745 304.071 -60.4185 304.383 -59.9748 304.522C-59.5164 304.655 -58.9691 304.672 -58.3328 304.571L-56.0869 304.202C-54.6254 303.955 -53.3466 304.091 -52.2505 304.611C-51.1545 305.131 -50.3844 305.905 -49.9403 306.933C-49.547 307.844 -49.4215 308.739 -49.564 309.62C-49.7128 310.486 -50.1234 311.291 -50.7957 312.034C-51.468 312.778 -52.399 313.407 -53.5887 313.921ZM-39.2623 307.419L-40.3116 305.232L-41.758 301.883C-42.0435 301.222 -42.3612 300.688 -42.7111 300.281C-43.0464 299.868 -43.4221 299.604 -43.8384 299.487C-44.2464 299.35 -44.7074 299.392 -45.2215 299.614C-45.6915 299.817 -46.0731 300.104 -46.3662 300.474C-46.6593 300.845 -46.846 301.3 -46.9264 301.841L-49.8629 302.063C-49.8602 301.504 -49.7558 300.919 -49.5495 300.307C-49.3496 299.68 -48.9941 299.091 -48.4831 298.539C-47.9637 297.966 -47.2413 297.48 -46.3159 297.08C-45.1996 296.598 -44.1822 296.411 -43.2638 296.52C-42.3307 296.623 -41.5198 296.987 -40.831 297.613C-40.1339 298.218 -39.5643 299.053 -39.1222 300.117L-36.5522 306.248L-39.2623 307.419ZM-42.2326 309.016C-43.5546 309.587 -44.7097 309.737 -45.6979 309.467C-46.6714 309.19 -47.3897 308.515 -47.8528 307.443C-48.3604 306.268 -48.3518 305.219 -47.8271 304.295C-47.294 303.35 -46.3151 302.57 -44.8903 301.955L-42.0922 300.746L-41.1595 302.905L-42.9442 303.676C-43.8989 304.088 -44.5092 304.491 -44.7749 304.885C-45.0469 305.264 -45.0941 305.659 -44.9165 306.07C-44.7769 306.393 -44.519 306.587 -44.1427 306.651C-43.7728 306.7 -43.3235 306.611 -42.7947 306.383C-42.31 306.173 -41.9316 305.879 -41.6596 305.5C-41.3792 305.1 -41.205 304.676 -41.1369 304.229C-41.0752 303.766 -41.1268 303.344 -41.2917 302.962L-40.5867 302.658C-39.9396 304.156 -39.7216 305.447 -39.9329 306.532C-40.1294 307.61 -40.896 308.438 -42.2326 309.016ZM-33.0666 304.743L-38.3006 292.625C-38.8082 291.45 -38.9004 290.409 -38.5773 289.503C-38.2606 288.582 -37.4853 287.855 -36.2515 287.322C-35.8255 287.138 -35.3458 287.018 -34.8123 286.961C-34.2642 286.899 -33.7474 286.885 -33.262 286.919L-33.4375 289.479C-33.7233 289.463 -33.9744 289.466 -34.1907 289.49C-34.407 289.514 -34.596 289.561 -34.7575 289.63C-35.1541 289.802 -35.3876 290.068 -35.458 290.43C-35.5348 290.777 -35.4431 291.251 -35.183 291.853L-30.1583 303.487L-33.0666 304.743ZM-38.6448 296.852L-39.6535 294.516L-32.2065 291.3L-31.1978 293.635L-38.6448 296.852ZM-20.6833 299.708C-21.7703 300.177 -22.837 300.351 -23.8836 300.227C-24.9366 300.09 -25.8926 299.692 -26.7516 299.035C-27.596 298.371 -28.2624 297.474 -28.7509 296.343C-29.2394 295.212 -29.4285 294.108 -29.3181 293.033C-29.193 291.95 -28.8091 290.983 -28.1666 290.13C-27.5156 289.256 -26.632 288.578 -25.5157 288.096C-24.5463 287.677 -23.5466 287.551 -22.5167 287.716C-21.4784 287.86 -20.5044 288.319 -19.5946 289.094C-18.6765 289.848 -17.9161 290.922 -17.3134 292.318L-25.6637 295.925L-25.5135 295.546C-25.2788 296.089 -24.9404 296.51 -24.4984 296.807C-24.048 297.083 -23.5623 297.239 -23.0411 297.275C-22.5117 297.291 -21.9972 297.191 -21.4978 296.975C-20.8956 296.715 -20.4574 296.377 -20.1834 295.963C-19.9157 295.533 -19.7679 295.069 -19.7399 294.568L-16.7022 294.459C-16.7442 295.209 -16.9166 295.92 -17.2193 296.591C-17.5137 297.241 -17.948 297.829 -18.5222 298.356C-19.0963 298.883 -19.8167 299.334 -20.6833 299.708ZM-26.0635 293.849L-26.4421 293.699L-21.1323 291.405L-21.2604 291.774C-21.4888 291.246 -21.7945 290.881 -22.1774 290.68C-22.5667 290.465 -22.9766 290.363 -23.4073 290.375C-23.8233 290.38 -24.2002 290.456 -24.538 290.602C-24.8758 290.748 -25.204 290.977 -25.5224 291.289C-25.8409 291.6 -26.0699 291.978 -26.2094 292.422C-26.3405 292.844 -26.2919 293.32 -26.0635 293.849ZM-8.92426 294.629C-10.1434 295.155 -11.1988 295.254 -12.0906 294.925C-12.9676 294.589 -13.6472 293.863 -14.1293 292.746L-18.9827 281.51L-16.0744 280.254L-11.497 290.851C-11.294 291.321 -11.0357 291.637 -10.7222 291.798C-10.4151 291.944 -10.0632 291.931 -9.66665 291.76C-9.51976 291.697 -9.37088 291.597 -9.22 291.463C-9.07546 291.313 -8.93626 291.131 -8.80241 290.916L-6.84678 292.66C-7.08511 293.076 -7.3897 293.461 -7.76057 293.813C-8.1104 294.173 -8.4983 294.445 -8.92426 294.629ZM-18.217 288.185L-19.2828 285.718L-11.8358 282.501L-10.7699 284.969L-18.217 288.185ZM-0.491741 296.215C-0.888328 296.387 -1.36387 296.496 -1.91838 296.544C-2.45185 296.6 -2.9466 296.605 -3.40264 296.558L-3.34129 293.734C-3.03449 293.758 -2.76241 293.763 -2.52505 293.747C-2.26666 293.74 -2.05668 293.702 -1.8951 293.632C-1.58665 293.499 -1.35298 293.293 -1.19409 293.015C-1.02887 292.752 -0.942597 292.428 -0.935287 292.041L-0.958144 288.417L-1.31862 277.959L1.87611 276.579L2.04212 290.703C2.05088 291.57 2.00688 292.356 1.91013 293.06C1.81972 293.779 1.59143 294.4 1.22525 294.925C0.873767 295.442 0.301435 295.873 -0.491741 296.215ZM-0.834742 290.821L-10.6384 281.984L-7.4437 280.604L0.0994231 287.96L1.94137 289.622L-0.834742 290.821Z" fill="white"/>
<circle cx="44.4016" cy="262.023" r="3" transform="rotate(-23.3607 44.4016 262.023)" fill="#FAFAFA"/>
<path d="M89.8391 251.657L83.1776 236.234L86.4605 234.816L93.8291 239.528L95.4498 230.933L98.7106 229.525L105.372 244.948L102.376 246.242L97.7507 235.534L96.0179 244.596L88.2421 239.667L92.8576 250.353L89.8391 251.657ZM114.966 240.804L113.916 238.617L112.47 235.268C112.184 234.607 111.867 234.073 111.517 233.666C111.182 233.253 110.806 232.989 110.389 232.872C109.981 232.735 109.52 232.777 109.006 232.999C108.536 233.202 108.155 233.489 107.862 233.859C107.569 234.23 107.382 234.685 107.301 235.226L104.365 235.448C104.368 234.889 104.472 234.304 104.678 233.692C104.878 233.065 105.234 232.476 105.745 231.924C106.264 231.351 106.987 230.865 107.912 230.465C109.028 229.983 110.046 229.796 110.964 229.905C111.897 230.008 112.708 230.372 113.397 230.998C114.094 231.603 114.664 232.438 115.106 233.502L117.676 239.633L114.966 240.804ZM111.995 242.401C110.673 242.972 109.518 243.122 108.53 242.852C107.557 242.575 106.838 241.9 106.375 240.828C105.868 239.653 105.876 238.604 106.401 237.68C106.934 236.735 107.913 235.955 109.338 235.34L112.136 234.131L113.068 236.29L111.284 237.061C110.329 237.473 109.719 237.876 109.453 238.27C109.181 238.649 109.134 239.044 109.311 239.455C109.451 239.779 109.709 239.972 110.085 240.036C110.455 240.086 110.904 239.996 111.433 239.768C111.918 239.558 112.296 239.264 112.568 238.885C112.849 238.485 113.023 238.061 113.091 237.614C113.153 237.151 113.101 236.729 112.936 236.347L113.641 236.043C114.288 237.541 114.506 238.832 114.295 239.917C114.098 240.995 113.332 241.823 111.995 242.401ZM120.06 238.604L115.301 227.587L118.033 226.407L119.085 228.358L122.968 237.348L120.06 238.604ZM127.352 235.454L124.916 229.813L127.825 228.557L130.261 234.198L127.352 235.454ZM124.916 229.813C124.593 229.064 124.254 228.522 123.9 228.187C123.561 227.846 123.199 227.653 122.814 227.61C122.423 227.552 122.022 227.612 121.611 227.79C120.856 228.099 120.374 228.577 120.165 229.225C119.972 229.866 120.075 230.65 120.475 231.575L119.505 231.994C118.998 230.819 118.738 229.754 118.727 228.8C118.724 227.826 118.94 226.992 119.373 226.3C119.814 225.586 120.453 225.049 121.29 224.687C122.157 224.313 122.975 224.168 123.744 224.255C124.513 224.341 125.221 224.688 125.868 225.298C126.508 225.893 127.075 226.781 127.568 227.962L127.825 228.557L124.916 229.813ZM139.236 230.321L138.187 228.134L136.74 224.785C136.455 224.124 136.137 223.59 135.787 223.183C135.452 222.77 135.076 222.506 134.66 222.389C134.252 222.252 133.791 222.294 133.277 222.516C132.807 222.719 132.425 223.006 132.132 223.377C131.839 223.747 131.652 224.203 131.572 224.743L128.635 224.965C128.638 224.406 128.742 223.821 128.949 223.209C129.149 222.582 129.504 221.993 130.015 221.441C130.535 220.868 131.257 220.382 132.182 219.982C133.299 219.5 134.316 219.313 135.234 219.422C136.168 219.525 136.978 219.889 137.667 220.515C138.364 221.12 138.934 221.955 139.376 223.019L141.946 229.15L139.236 230.321ZM136.266 231.918C134.944 232.489 133.789 232.639 132.8 232.369C131.827 232.092 131.109 231.418 130.645 230.345C130.138 229.17 130.146 228.121 130.671 227.197C131.204 226.252 132.183 225.472 133.608 224.857L136.406 223.648L137.339 225.807L135.554 226.578C134.599 226.99 133.989 227.393 133.723 227.787C133.451 228.166 133.404 228.561 133.582 228.972C133.721 229.296 133.979 229.489 134.355 229.553C134.725 229.603 135.175 229.513 135.704 229.285C136.188 229.075 136.567 228.781 136.839 228.402C137.119 228.002 137.293 227.578 137.361 227.131C137.423 226.668 137.371 226.246 137.206 225.864L137.912 225.56C138.559 227.058 138.777 228.35 138.565 229.434C138.369 230.512 137.602 231.34 136.266 231.918ZM151.314 230.672C150.477 231.034 149.71 231.296 149.013 231.457C148.316 231.619 147.706 231.7 147.183 231.699C146.66 231.698 146.217 231.663 145.856 231.592L145.993 228.762C146.249 228.791 146.578 228.806 146.979 228.807C147.387 228.822 147.848 228.78 148.362 228.68C148.883 228.594 149.452 228.418 150.069 228.152C150.656 227.898 151.12 227.558 151.459 227.133C151.819 226.716 152.019 226.211 152.06 225.619C152.121 225.035 151.993 224.375 151.676 223.641L147.393 213.726L150.302 212.47L154.546 222.296C155.079 223.53 155.301 224.689 155.211 225.774C155.128 226.873 154.752 227.837 154.082 228.667C153.427 229.49 152.504 230.159 151.314 230.672ZM148.581 225.919C147.568 226.356 146.591 226.517 145.652 226.399C144.727 226.276 143.888 225.907 143.134 225.291C142.38 224.676 141.768 223.824 141.299 222.737C140.804 221.592 140.581 220.511 140.631 219.496C140.674 218.467 140.965 217.566 141.503 216.793C142.049 216 142.829 215.384 143.842 214.946C144.723 214.566 145.589 214.471 146.438 214.662C147.281 214.838 148.063 215.276 148.783 215.975C149.504 216.675 150.118 217.612 150.625 218.787C151.082 219.845 151.305 220.847 151.296 221.792C151.286 222.737 151.053 223.57 150.597 224.29C150.134 224.995 149.463 225.538 148.581 225.919ZM148.362 223.111C148.862 222.896 149.241 222.584 149.5 222.175C149.768 221.746 149.91 221.266 149.925 220.737C149.934 220.193 149.815 219.634 149.567 219.061C149.313 218.474 148.981 218.007 148.57 217.662C148.175 217.31 147.732 217.092 147.242 217.007C146.767 216.916 146.28 216.978 145.78 217.194C145.266 217.416 144.865 217.738 144.576 218.159C144.287 218.58 144.128 219.058 144.098 219.594C144.068 220.13 144.172 220.694 144.411 221.288C144.674 221.855 145.013 222.318 145.43 222.678C145.841 223.024 146.302 223.243 146.812 223.336C147.331 223.408 147.848 223.333 148.362 223.111ZM162.656 220.519C161.569 220.988 160.502 221.162 159.456 221.039C158.403 220.901 157.447 220.503 156.588 219.846C155.743 219.182 155.077 218.285 154.588 217.154C154.1 216.023 153.911 214.92 154.021 213.844C154.146 212.761 154.53 211.794 155.173 210.941C155.824 210.067 156.707 209.389 157.824 208.907C158.793 208.489 159.793 208.362 160.823 208.527C161.861 208.671 162.835 209.13 163.745 209.905C164.663 210.659 165.423 211.734 166.026 213.129L157.676 216.736L157.826 216.357C158.061 216.901 158.399 217.321 158.841 217.618C159.291 217.894 159.777 218.05 160.298 218.086C160.828 218.102 161.342 218.002 161.842 217.786C162.444 217.526 162.882 217.188 163.156 216.774C163.424 216.344 163.572 215.88 163.6 215.38L166.637 215.27C166.595 216.02 166.423 216.731 166.12 217.402C165.826 218.052 165.391 218.64 164.817 219.167C164.243 219.694 163.523 220.145 162.656 220.519ZM157.276 214.66L156.897 214.51L162.207 212.216L162.079 212.585C161.851 212.057 161.545 211.692 161.162 211.491C160.773 211.276 160.363 211.174 159.932 211.186C159.516 211.191 159.139 211.267 158.801 211.413C158.464 211.559 158.135 211.788 157.817 212.1C157.498 212.411 157.27 212.789 157.13 213.233C156.999 213.656 157.047 214.131 157.276 214.66ZM169.762 217.136L165.004 206.12L167.736 204.94L168.487 206.315C168.584 205.611 168.836 205.005 169.244 204.497C169.646 203.975 170.17 203.574 170.817 203.295C171.713 202.908 172.544 202.776 173.311 202.897C174.093 203.013 174.795 203.407 175.417 204.08C175.416 203.191 175.624 202.421 176.04 201.771C176.45 201.106 177.044 200.605 177.823 200.269C179.116 199.711 180.277 199.697 181.308 200.228C182.333 200.744 183.21 201.846 183.94 203.536L186.661 209.837L183.753 211.093L181.317 205.453C180.993 204.704 180.662 204.158 180.323 203.817C179.983 203.475 179.636 203.277 179.281 203.221C178.919 203.151 178.548 203.198 178.166 203.363C177.454 203.653 177.009 204.115 176.83 204.75C176.651 205.385 176.762 206.165 177.162 207.091L179.655 212.863L176.747 214.119L174.31 208.479C173.987 207.73 173.655 207.184 173.316 206.843C172.992 206.495 172.644 206.297 172.275 206.247C171.913 206.177 171.541 206.224 171.159 206.389C170.448 206.679 170.003 207.141 169.824 207.776C169.66 208.405 169.778 209.182 170.177 210.107L172.671 215.88L169.762 217.136ZM194.07 206.951C192.983 207.42 191.916 207.593 190.869 207.47C189.817 207.332 188.861 206.935 188.002 206.278C187.157 205.614 186.491 204.717 186.002 203.586C185.514 202.455 185.325 201.351 185.435 200.275C185.56 199.193 185.944 198.225 186.587 197.373C187.237 196.499 188.121 195.821 189.237 195.339C190.207 194.92 191.207 194.793 192.236 194.959C193.275 195.103 194.249 195.562 195.159 196.337C196.077 197.091 196.837 198.165 197.44 199.561L189.089 203.167L189.24 202.789C189.474 203.332 189.813 203.752 190.255 204.05C190.705 204.326 191.191 204.482 191.712 204.518C192.241 204.533 192.756 204.433 193.255 204.218C193.858 203.957 194.296 203.62 194.57 203.205C194.837 202.776 194.985 202.311 195.013 201.811L198.051 201.702C198.009 202.452 197.837 203.163 197.534 203.834C197.239 204.484 196.805 205.072 196.231 205.599C195.657 206.126 194.936 206.576 194.07 206.951ZM188.69 201.092L188.311 200.942L193.621 198.648L193.493 199.017C193.264 198.488 192.959 198.124 192.576 197.923C192.186 197.708 191.776 197.606 191.346 197.618C190.93 197.623 190.553 197.699 190.215 197.845C189.877 197.991 189.549 198.219 189.231 198.531C188.912 198.843 188.683 199.221 188.544 199.665C188.413 200.087 188.461 200.563 188.69 201.092ZM201.176 203.568L196.418 192.551L199.15 191.371L200.202 193.322L204.084 202.311L201.176 203.568ZM208.469 200.418L206.033 194.777L208.941 193.521L211.377 199.161L208.469 200.418ZM206.033 194.777C205.709 194.028 205.37 193.486 205.016 193.151C204.677 192.809 204.315 192.617 203.931 192.574C203.54 192.516 203.139 192.576 202.727 192.754C201.972 193.063 201.49 193.541 201.282 194.189C201.088 194.83 201.191 195.614 201.591 196.539L200.622 196.958C200.114 195.783 199.855 194.718 199.844 193.764C199.841 192.79 200.056 191.956 200.489 191.263C200.93 190.55 201.569 190.012 202.407 189.651C203.273 189.277 204.091 189.132 204.86 189.218C205.629 189.305 206.337 189.652 206.984 190.262C207.624 190.857 208.191 191.745 208.684 192.926L208.941 193.521L206.033 194.777ZM218.351 196.463C217.132 196.989 216.077 197.088 215.185 196.759C214.308 196.423 213.628 195.697 213.146 194.58L208.293 183.344L211.201 182.088L215.779 192.685C215.982 193.155 216.24 193.471 216.553 193.632C216.86 193.778 217.212 193.765 217.609 193.594C217.756 193.531 217.905 193.431 218.056 193.297C218.2 193.147 218.339 192.965 218.473 192.75L220.429 194.494C220.19 194.91 219.886 195.295 219.515 195.647C219.165 196.007 218.777 196.279 218.351 196.463ZM209.059 190.019L207.993 187.552L215.44 184.335L216.506 186.803L209.059 190.019Z" fill="white"/>
<circle cx="259.22" cy="169.238" r="3" transform="rotate(-23.3607 259.22 169.238)" fill="#FAFAFA"/>
<path d="M311.822 156.091C310.265 156.763 308.739 157.022 307.242 156.866C305.754 156.69 304.416 156.153 303.226 155.255C302.03 154.342 301.099 153.115 300.433 151.572C299.754 150.001 299.496 148.474 299.657 146.992C299.813 145.496 300.332 144.156 301.215 142.973C302.113 141.784 303.333 140.856 304.876 140.19C306.433 139.517 307.948 139.272 309.421 139.455C310.903 139.617 312.241 140.154 313.437 141.067C314.627 141.965 315.558 143.192 316.23 144.749C316.896 146.291 317.152 147.811 316.996 149.307C316.849 150.782 316.33 152.122 315.438 153.326C314.555 154.509 313.35 155.431 311.822 156.091ZM310.633 153.337C311.573 152.931 312.3 152.355 312.815 151.61C313.338 150.844 313.629 149.986 313.69 149.036C313.765 148.08 313.583 147.095 313.146 146.081C312.702 145.053 312.106 144.239 311.358 143.638C310.611 143.037 309.782 142.672 308.872 142.542C307.956 142.397 307.02 142.531 306.065 142.944C305.14 143.343 304.408 143.929 303.871 144.702C303.341 145.454 303.039 146.307 302.964 147.263C302.889 148.22 303.073 149.212 303.517 150.24C303.955 151.253 304.548 152.061 305.295 152.661C306.043 153.262 306.882 153.632 307.813 153.77C308.738 153.893 309.678 153.749 310.633 153.337ZM323.594 155.921L316.933 140.498L319.665 139.318L320.717 141.269L326.503 154.665L323.594 155.921ZM328.041 149.085C327.115 149.485 326.228 149.59 325.379 149.399C324.544 149.201 323.771 148.743 323.058 148.022C322.346 147.301 321.736 146.353 321.229 145.178C320.715 143.988 320.443 142.895 320.413 141.897C320.376 140.884 320.572 140.007 321.001 139.264C321.444 138.515 322.129 137.94 323.054 137.54C324.067 137.103 325.043 136.96 325.98 137.113C326.932 137.259 327.801 137.677 328.587 138.366C329.366 139.04 330.013 139.972 330.527 141.162C331.034 142.337 331.269 143.447 331.232 144.491C331.196 145.535 330.904 146.454 330.358 147.248C329.827 148.035 329.054 148.648 328.041 149.085ZM326.14 146.743C326.669 146.515 327.074 146.183 327.357 145.747C327.654 145.305 327.818 144.798 327.85 144.227C327.882 143.655 327.768 143.068 327.508 142.466C327.248 141.864 326.899 141.378 326.461 141.01C326.038 140.635 325.566 140.412 325.047 140.339C324.536 140.246 324.017 140.314 323.488 140.542C322.988 140.758 322.598 141.084 322.315 141.52C322.033 141.955 321.883 142.456 321.866 143.021C321.842 143.571 321.96 144.148 322.22 144.75C322.48 145.352 322.822 145.841 323.246 146.216C323.669 146.59 324.129 146.828 324.625 146.927C325.135 147.02 325.641 146.959 326.14 146.743ZM339.907 143.96C338.82 144.43 337.753 144.603 336.707 144.48C335.654 144.342 334.698 143.944 333.839 143.287C332.994 142.623 332.328 141.726 331.839 140.595C331.351 139.464 331.162 138.361 331.272 137.285C331.397 136.202 331.781 135.235 332.424 134.382C333.075 133.508 333.958 132.831 335.075 132.348C336.044 131.93 337.044 131.803 338.074 131.968C339.112 132.112 340.086 132.572 340.996 133.346C341.914 134.1 342.674 135.175 343.277 136.57L334.927 140.177L335.077 139.798C335.312 140.342 335.65 140.762 336.092 141.059C336.542 141.335 337.028 141.491 337.549 141.528C338.079 141.543 338.593 141.443 339.093 141.227C339.695 140.967 340.133 140.629 340.407 140.215C340.675 139.785 340.823 139.321 340.851 138.821L343.888 138.711C343.846 139.461 343.674 140.172 343.371 140.843C343.077 141.493 342.642 142.081 342.068 142.608C341.494 143.135 340.774 143.586 339.907 143.96ZM334.527 138.101L334.148 137.951L339.458 135.657L339.33 136.027C339.102 135.498 338.796 135.133 338.413 134.932C338.024 134.717 337.614 134.615 337.183 134.627C336.767 134.633 336.39 134.708 336.052 134.854C335.715 135 335.386 135.229 335.068 135.541C334.749 135.853 334.52 136.23 334.381 136.674C334.25 137.097 334.298 137.572 334.527 138.101ZM346.559 133.897C346.046 132.708 345.848 131.625 345.967 130.65C346.101 129.669 346.445 128.831 347 128.139C347.57 127.44 348.251 126.919 349.044 126.576L350.262 129.396C349.586 129.688 348.982 130.045 348.45 130.467C347.932 130.882 347.569 131.352 347.36 131.878C347.152 132.404 347.171 132.953 347.419 133.526L346.559 133.897ZM347.013 140.577L342.255 129.561L345.163 128.305L349.921 139.321L347.013 140.577ZM362.015 134.097L360.966 131.91L359.52 128.561C359.234 127.9 358.916 127.366 358.566 126.96C358.231 126.547 357.855 126.282 357.439 126.166C357.031 126.028 356.57 126.07 356.056 126.292C355.586 126.495 355.205 126.782 354.911 127.153C354.618 127.523 354.432 127.979 354.351 128.519L351.415 128.742C351.417 128.183 351.522 127.597 351.728 126.985C351.928 126.359 352.283 125.769 352.795 125.218C353.314 124.645 354.036 124.158 354.962 123.759C356.078 123.276 357.095 123.09 358.014 123.199C358.947 123.301 359.758 123.665 360.447 124.291C361.144 124.897 361.713 125.731 362.155 126.795L364.725 132.927L362.015 134.097ZM359.045 135.694C357.723 136.265 356.568 136.415 355.58 136.145C354.606 135.868 353.888 135.194 353.425 134.122C352.917 132.946 352.926 131.897 353.451 130.973C353.984 130.028 354.963 129.248 356.387 128.633L359.185 127.424L360.118 129.584L358.333 130.354C357.379 130.767 356.768 131.17 356.503 131.563C356.231 131.942 356.183 132.337 356.361 132.749C356.501 133.072 356.759 133.265 357.135 133.33C357.505 133.379 357.954 133.289 358.483 133.061C358.968 132.852 359.346 132.557 359.618 132.179C359.898 131.779 360.073 131.355 360.141 130.907C360.202 130.445 360.151 130.023 359.986 129.641L360.691 129.336C361.338 130.834 361.556 132.126 361.345 133.21C361.148 134.289 360.382 135.117 359.045 135.694ZM371.762 130.201C370.543 130.728 369.488 130.826 368.596 130.497C367.719 130.161 367.039 129.435 366.557 128.319L361.704 117.082L364.612 115.826L369.19 126.424C369.393 126.894 369.651 127.209 369.964 127.37C370.271 127.516 370.623 127.504 371.02 127.332C371.167 127.269 371.316 127.17 371.467 127.035C371.611 126.885 371.75 126.703 371.884 126.488L373.84 128.232C373.601 128.649 373.297 129.033 372.926 129.385C372.576 129.745 372.188 130.017 371.762 130.201ZM362.47 123.758L361.404 121.29L368.851 118.073L369.917 120.541L362.47 123.758ZM376.15 127.992L371.392 116.976L374.3 115.72L379.059 126.736L376.15 127.992ZM372.075 114.563C371.635 114.753 371.176 114.76 370.698 114.583C370.215 114.391 369.874 114.067 369.678 113.612C369.481 113.156 369.482 112.694 369.68 112.225C369.872 111.741 370.188 111.404 370.629 111.214C371.084 111.017 371.546 111.018 372.016 111.216C372.493 111.394 372.83 111.71 373.027 112.165C373.223 112.621 373.226 113.09 373.034 113.574C372.85 114.037 372.531 114.366 372.075 114.563ZM387.032 123.606C385.916 124.088 384.812 124.277 383.722 124.173C382.639 124.048 381.661 123.66 380.788 123.009C379.929 122.351 379.255 121.457 378.766 120.326C378.278 119.195 378.089 118.092 378.199 117.016C378.31 115.94 378.694 114.972 379.351 114.113C380.002 113.24 380.885 112.562 382.002 112.079C383.133 111.591 384.239 111.409 385.322 111.534C386.398 111.645 387.365 112.029 388.224 112.686C389.083 113.343 389.757 114.237 390.245 115.368C390.734 116.499 390.923 117.603 390.813 118.679C390.702 119.755 390.322 120.73 389.671 121.603C389.028 122.456 388.149 123.123 387.032 123.606ZM385.871 120.918C386.415 120.683 386.835 120.344 387.132 119.902C387.429 119.46 387.59 118.964 387.613 118.414C387.645 117.842 387.531 117.255 387.271 116.653C387.011 116.051 386.665 115.573 386.233 115.219C385.795 114.85 385.306 114.626 384.766 114.545C384.241 114.459 383.706 114.533 383.163 114.767C382.634 114.996 382.214 115.334 381.902 115.783C381.605 116.225 381.44 116.731 381.408 117.303C381.37 117.86 381.481 118.439 381.741 119.042C382.001 119.644 382.35 120.129 382.788 120.498C383.22 120.852 383.706 121.069 384.246 121.149C384.786 121.229 385.328 121.152 385.871 120.918ZM394.543 120.048L389.784 109.032L392.516 107.852L393.568 109.802L397.451 118.792L394.543 120.048ZM401.835 116.898L399.399 111.258L402.307 110.001L404.744 115.642L401.835 116.898ZM399.399 111.258C399.076 110.509 398.737 109.966 398.383 109.631C398.044 109.29 397.682 109.098 397.297 109.054C396.906 108.997 396.505 109.057 396.094 109.234C395.339 109.543 394.857 110.022 394.648 110.669C394.455 111.311 394.558 112.094 394.958 113.019L393.988 113.438C393.481 112.263 393.221 111.198 393.21 110.245C393.207 109.27 393.423 108.436 393.855 107.744C394.297 107.03 394.936 106.493 395.773 106.131C396.64 105.757 397.458 105.613 398.227 105.699C398.996 105.785 399.704 106.133 400.351 106.742C400.991 107.337 401.558 108.225 402.051 109.407L402.307 110.001L399.399 111.258ZM411.299 113.124C410.594 113.429 409.889 113.611 409.183 113.672C408.471 113.718 407.794 113.644 407.153 113.451C406.505 113.243 405.922 112.902 405.404 112.428L407.399 110.207C407.772 110.465 408.206 110.643 408.702 110.743C409.192 110.827 409.687 110.762 410.186 110.546C410.671 110.337 411.017 110.109 411.224 109.863C411.425 109.601 411.468 109.339 411.354 109.074C411.24 108.81 411.047 108.667 410.776 108.644C410.513 108.601 410.179 108.614 409.774 108.685L408.646 108.858C407.468 109.036 406.441 108.957 405.564 108.621C404.695 108.264 404.089 107.689 403.747 106.896C403.258 105.765 403.241 104.736 403.694 103.808C404.162 102.874 405.064 102.118 406.401 101.541C407.091 101.243 407.775 101.07 408.451 101.021C409.142 100.967 409.78 101.031 410.364 101.215C410.949 101.398 411.427 101.697 411.798 102.112L409.872 104.251C409.642 104.001 409.291 103.874 408.818 103.869C408.339 103.85 407.901 103.925 407.505 104.097C407.108 104.268 406.838 104.489 406.694 104.761C406.558 105.011 406.553 105.283 406.68 105.577C406.763 105.768 406.935 105.885 407.198 105.928C407.454 105.957 407.793 105.933 408.213 105.856L409.797 105.59C410.593 105.456 411.289 105.495 411.887 105.707C412.492 105.899 412.995 106.196 413.395 106.598C413.804 106.979 414.107 107.397 414.303 107.853C414.589 108.514 414.644 109.187 414.47 109.872C414.304 110.537 413.943 111.154 413.388 111.725C412.847 112.29 412.151 112.756 411.299 113.124Z" fill="white"/>
<circle cx="453.841" cy="85.1766" r="3" transform="rotate(-23.3607 453.841 85.1766)" fill="#FAFAFA"/>
<path d="M504.571 72.8378C503.793 73.174 503.025 73.3926 502.266 73.4935C501.508 73.5943 500.792 73.5901 500.117 73.4806C499.436 73.3565 498.827 73.1576 498.291 72.8839C497.769 72.6038 497.355 72.251 497.049 71.8254L499.621 69.6689C500.028 70.0858 500.553 70.3732 501.196 70.531C501.833 70.6742 502.522 70.5945 503.263 70.292C504.048 69.9704 504.606 69.5287 504.939 68.9668C505.286 68.3986 505.339 67.8354 505.098 67.2773C504.888 66.7925 504.516 66.4743 503.979 66.3224C503.452 66.1495 502.812 66.1209 502.06 66.2364L499.827 66.5737C498.995 66.7063 498.21 66.7053 497.473 66.5709C496.728 66.4217 496.071 66.1305 495.5 65.6972C494.93 65.2639 494.48 64.6654 494.15 63.9016C493.522 62.4474 493.511 61.1102 494.116 59.89C494.731 58.6487 495.919 57.6474 497.682 56.8861C498.666 56.4611 499.588 56.2368 500.45 56.2133C501.319 56.1689 502.118 56.3032 502.846 56.6162C503.574 56.9293 504.225 57.3886 504.8 57.9942L502.26 60.1632C501.868 59.7399 501.361 59.4535 500.739 59.304C500.117 59.1545 499.446 59.2352 498.726 59.5461C497.991 59.8633 497.484 60.2828 497.204 60.8046C496.939 61.3201 496.939 61.8863 497.206 62.5032C497.415 62.9879 497.742 63.3 498.185 63.4395C498.644 63.5727 499.191 63.589 499.827 63.4885L502.073 63.1197C503.535 62.8719 504.814 63.008 505.91 63.528C507.006 64.048 507.776 64.8221 508.22 65.8503C508.613 66.761 508.739 67.6567 508.596 68.5374C508.447 69.4034 508.037 70.2081 507.364 70.9516C506.692 71.6952 505.761 72.3239 504.571 72.8378ZM516.465 72.9293C516.068 73.1006 515.593 73.2102 515.038 73.258C514.505 73.3141 514.01 73.3186 513.554 73.2716L513.615 70.4478C513.922 70.4722 514.194 70.4766 514.431 70.4613C514.69 70.4542 514.9 70.4158 515.061 70.346C515.37 70.2128 515.604 70.0073 515.762 69.7295C515.928 69.4664 516.014 69.1416 516.021 68.755L515.998 65.131L515.638 54.6726L518.833 53.2928L518.999 67.4167C519.007 68.2844 518.963 69.0702 518.867 69.7743C518.776 70.4931 518.548 71.1145 518.182 71.6387C517.83 72.1565 517.258 72.5867 516.465 72.9293ZM516.122 67.5352L506.318 58.6981L509.513 57.3182L517.056 64.6742L518.898 66.3361L516.122 67.5352ZM529.173 62.2118C528.468 62.5163 527.762 62.699 527.057 62.7598C526.345 62.8059 525.668 62.7322 525.027 62.5386C524.379 62.3304 523.796 61.9896 523.278 61.5162L525.273 59.2952C525.645 59.5525 526.08 59.7309 526.576 59.8304C527.066 59.9151 527.56 59.8497 528.06 59.6339C528.544 59.4246 528.89 59.1967 529.098 58.9503C529.298 58.6892 529.342 58.4265 529.228 58.1621C529.113 57.8977 528.921 57.7543 528.65 57.732C528.387 57.6886 528.053 57.7022 527.648 57.7727L526.52 57.946C525.342 58.1237 524.314 58.0447 523.437 57.7089C522.569 57.3521 521.963 56.7771 521.62 55.984C521.132 54.853 521.114 53.8236 521.568 52.8958C522.035 51.9617 522.938 51.2059 524.274 50.6286C524.965 50.3304 525.648 50.1573 526.325 50.1091C527.016 50.0546 527.653 50.119 528.238 50.3022C528.823 50.4855 529.3 50.7846 529.671 51.1995L527.745 53.3384C527.516 53.089 527.165 52.9619 526.692 52.9569C526.213 52.9373 525.775 53.0131 525.378 53.1844C524.982 53.3557 524.711 53.577 524.567 53.8485C524.431 54.0989 524.427 54.3709 524.554 54.6647C524.636 54.8557 524.809 54.9728 525.072 55.0162C525.328 55.0449 525.666 55.0208 526.086 54.944L527.67 54.6779C528.466 54.5433 529.163 54.5823 529.76 54.7949C530.366 54.9865 530.869 55.2834 531.269 55.6857C531.678 56.0669 531.98 56.4851 532.177 56.9405C532.463 57.6015 532.518 58.2747 532.343 58.96C532.177 59.6244 531.817 60.242 531.261 60.813C530.721 61.3775 530.025 61.8438 529.173 62.2118ZM539.855 57.598C538.636 58.1246 537.58 58.2232 536.689 57.8937C535.811 57.558 535.132 56.8319 534.65 55.7156L529.796 44.479L532.705 43.2228L537.282 53.8205C537.485 54.2905 537.743 54.606 538.057 54.7669C538.364 54.9131 538.716 54.9005 539.112 54.7292C539.259 54.6658 539.408 54.5666 539.559 54.4317C539.704 54.2822 539.843 54.1 539.977 53.8854L541.932 55.6288C541.694 56.0455 541.389 56.4298 541.019 56.7817C540.669 57.1419 540.281 57.414 539.855 57.598ZM530.562 51.1545L529.496 48.6869L536.943 45.4703L538.009 47.938L530.562 51.1545ZM548.967 53.6624C547.88 54.1319 546.813 54.3051 545.766 54.182C544.713 54.0442 543.757 53.6467 542.898 52.9895C542.054 52.3259 541.387 51.4286 540.899 50.2976C540.41 49.1665 540.221 48.063 540.332 46.9871C540.457 45.9047 540.841 44.9372 541.483 44.0846C542.134 43.2108 543.018 42.5329 544.134 42.0507C545.104 41.632 546.103 41.5052 547.133 41.6704C548.171 41.8145 549.145 42.274 550.055 43.0487C550.973 43.8024 551.734 44.877 552.336 46.2724L543.986 49.8791L544.136 49.5006C544.371 50.044 544.709 50.4643 545.151 50.7614C545.602 51.0374 546.088 51.1936 546.609 51.23C547.138 51.2453 547.653 51.1451 548.152 50.9294C548.754 50.6692 549.192 50.3319 549.466 49.9172C549.734 49.4879 549.882 49.0231 549.91 48.5231L552.948 48.4136C552.906 49.1638 552.733 49.8744 552.43 50.5454C552.136 51.1954 551.702 51.7838 551.128 52.3107C550.554 52.8376 549.833 53.2881 548.967 53.6624ZM543.586 47.8035L543.208 47.6533L548.518 45.3599L548.389 45.7289C548.161 45.2002 547.855 44.8355 547.472 44.6349C547.083 44.4196 546.673 44.3178 546.243 44.3295C545.827 44.3349 545.45 44.4105 545.112 44.5564C544.774 44.7024 544.446 44.9312 544.127 45.2431C543.809 45.5549 543.58 45.9327 543.44 46.3764C543.309 46.799 543.358 47.2747 543.586 47.8035ZM556.073 50.2794L551.314 39.2631L554.046 38.0831L554.797 39.4581C554.894 38.754 555.146 38.1482 555.555 37.6408C555.957 37.1186 556.481 36.7179 557.127 36.4388C558.023 36.0518 558.855 35.9192 559.622 36.041C560.404 36.1564 561.105 36.5504 561.727 37.2231C561.727 36.3344 561.935 35.5649 562.351 34.9145C562.761 34.2495 563.355 33.7488 564.133 33.4126C565.426 32.8543 566.588 32.8405 567.619 33.3712C568.643 33.8872 569.52 34.9898 570.25 36.679L572.972 42.9803L570.063 44.2365L567.627 38.5961C567.304 37.847 566.972 37.3017 566.633 36.9602C566.294 36.6187 565.947 36.4201 565.591 36.3644C565.23 36.294 564.858 36.3413 564.476 36.5062C563.765 36.7961 563.32 37.2585 563.141 37.8935C562.962 38.5284 563.072 39.3086 563.472 40.234L565.965 46.0065L563.057 47.2627L560.621 41.6224C560.297 40.8732 559.966 40.3279 559.627 39.9865C559.302 39.6386 558.955 39.44 558.585 39.3906C558.223 39.3202 557.852 39.3675 557.47 39.5325C556.758 39.8223 556.313 40.2847 556.134 40.9197C555.97 41.5483 556.088 42.3253 556.488 43.2507L558.981 49.0232L556.073 50.2794Z" fill="white"/>
<circle cx="611.742" cy="16.9754" r="3" transform="rotate(-23.3607 611.742 16.9754)" fill="#FAFAFA"/>
<path d="M657.18 6.60855L650.518 -8.8143L655.454 -10.946C657.025 -11.6248 658.556 -11.8939 660.046 -11.7531C661.551 -11.6187 662.892 -11.1172 664.068 -10.2487C665.254 -9.40117 666.173 -8.22096 666.826 -6.70805C667.474 -5.20983 667.703 -3.73144 667.513 -2.27287C667.339 -0.820647 666.785 0.499242 665.851 1.6868C664.932 2.86801 663.687 3.79803 662.115 4.47687L657.18 6.60855ZM658.98 2.48462L660.897 1.65669C661.602 1.35217 662.202 0.944994 662.696 0.435175C663.191 -0.0746435 663.563 -0.645044 663.813 -1.27603C664.078 -1.91335 664.209 -2.57971 664.205 -3.2751C664.194 -3.98518 664.04 -4.6854 663.742 -5.37575C663.444 -6.06611 663.043 -6.65113 662.539 -7.13081C662.03 -7.62519 661.452 -7.99436 660.806 -8.23834C660.175 -8.48867 659.505 -8.60862 658.795 -8.59821C658.084 -8.5878 657.377 -8.43033 656.672 -8.1258L654.755 -7.29787L658.98 2.48462ZM678.842 -2.74796L677.793 -4.93519L676.347 -8.28415C676.061 -8.94513 675.743 -9.47891 675.393 -9.8855C675.058 -10.2984 674.682 -10.5631 674.266 -10.6796C673.858 -10.8171 673.397 -10.7748 672.883 -10.5528C672.413 -10.3498 672.031 -10.063 671.738 -9.69238C671.445 -9.32179 671.259 -8.86642 671.178 -8.32625L668.242 -8.10366C668.244 -8.6625 668.349 -9.2479 668.555 -9.85985C668.755 -10.4865 669.11 -11.0758 669.622 -11.6276C670.141 -12.2006 670.863 -12.6869 671.789 -13.0865C672.905 -13.5687 673.922 -13.7554 674.841 -13.6467C675.774 -13.5443 676.585 -13.1799 677.274 -12.5537C677.971 -11.9485 678.54 -11.114 678.982 -10.0501L681.552 -3.91848L678.842 -2.74796ZM675.872 -1.15126C674.55 -0.580279 673.395 -0.429948 672.407 -0.70027C671.433 -0.976938 670.715 -1.6514 670.252 -2.72365C669.744 -3.89873 669.753 -4.94816 670.278 -5.87194C670.811 -6.81676 671.79 -7.59687 673.214 -8.21226L676.012 -9.42085L676.945 -7.26165L675.16 -6.49082C674.206 -6.07844 673.595 -5.67544 673.33 -5.28182C673.058 -4.90288 673.01 -4.50778 673.188 -4.0965C673.328 -3.77336 673.586 -3.57975 673.962 -3.51569C674.332 -3.46631 674.781 -3.55582 675.31 -3.78422C675.795 -3.99358 676.173 -4.28773 676.445 -4.66666C676.725 -5.06663 676.9 -5.49045 676.968 -5.93814C677.029 -6.40051 676.978 -6.82265 676.813 -7.20455L677.518 -7.50908C678.165 -6.01086 678.383 -4.71941 678.172 -3.63475C677.975 -2.55642 677.209 -1.72859 675.872 -1.15126ZM688.171 -6.46337C687.466 -6.15884 686.76 -5.97617 686.054 -5.91534C685.342 -5.86921 684.666 -5.94293 684.024 -6.1365C683.377 -6.34476 682.794 -6.68556 682.276 -7.1589L684.27 -9.37995C684.643 -9.12259 685.077 -8.94419 685.573 -8.84475C686.063 -8.76 686.558 -8.82548 687.057 -9.04118C687.542 -9.25055 687.888 -9.47842 688.095 -9.72482C688.296 -9.9859 688.34 -10.2486 688.225 -10.513C688.111 -10.7774 687.919 -10.9208 687.647 -10.9431C687.385 -10.9865 687.051 -10.973 686.645 -10.9025L685.518 -10.7291C684.34 -10.5514 683.312 -10.6304 682.435 -10.9662C681.566 -11.323 680.961 -11.898 680.618 -12.6912C680.13 -13.8222 680.112 -14.8516 680.565 -15.7794C681.033 -16.7135 681.936 -17.4692 683.272 -18.0465C683.963 -18.3447 684.646 -18.5179 685.322 -18.566C686.013 -18.6205 686.651 -18.5561 687.236 -18.3729C687.82 -18.1897 688.298 -17.8906 688.669 -17.4757L686.743 -15.3367C686.513 -15.5861 686.162 -15.7132 685.69 -15.7182C685.21 -15.7379 684.773 -15.662 684.376 -15.4908C683.979 -15.3195 683.709 -15.0981 683.565 -14.8267C683.429 -14.5763 683.425 -14.3042 683.551 -14.0104C683.634 -13.8195 683.807 -13.7023 684.069 -13.6589C684.326 -13.6303 684.664 -13.6543 685.084 -13.7311L686.668 -13.9972C687.464 -14.1318 688.161 -14.0928 688.758 -13.8802C689.363 -13.6886 689.866 -13.3917 690.267 -12.9895C690.675 -12.6083 690.978 -12.19 691.175 -11.7346C691.46 -11.0737 691.516 -10.4005 691.341 -9.71509C691.175 -9.05073 690.814 -8.43309 690.259 -7.86218C689.719 -7.2976 689.023 -6.83133 688.171 -6.46337ZM694.222 -9.39065L687.56 -24.8135L690.468 -26.0697L697.13 -10.6468L694.222 -9.39065ZM701.536 -12.5501L699.1 -18.1905L702.009 -19.4466L704.445 -13.8063L701.536 -12.5501ZM699.1 -18.1905C698.777 -18.9396 698.438 -19.4817 698.084 -19.8168C697.73 -20.152 697.361 -20.3411 696.976 -20.3841C696.585 -20.4418 696.184 -20.3819 695.773 -20.2042C695.018 -19.8954 694.536 -19.4171 694.327 -18.7694C694.134 -18.1281 694.237 -17.3447 694.637 -16.4194L693.667 -16.0006C693.16 -17.1757 692.9 -18.2401 692.889 -19.1939C692.886 -20.1687 693.102 -21.0024 693.534 -21.6948C693.976 -22.4082 694.615 -22.9458 695.452 -23.3074C696.334 -23.6881 697.151 -23.8322 697.906 -23.7398C698.675 -23.6537 699.383 -23.3059 700.03 -22.6964C700.67 -22.1015 701.244 -21.2166 701.752 -20.0415L702.009 -19.4466L699.1 -18.1905ZM706.765 -14.8085L700.104 -30.2313L703.012 -31.4875L708.788 -18.1137L709.519 -15.998L706.765 -14.8085ZM713.115 -17.2372C712.189 -16.8375 711.302 -16.7331 710.453 -16.924C709.618 -17.1212 708.845 -17.5802 708.132 -18.3009C707.42 -19.0216 706.81 -19.9695 706.303 -21.1446C705.789 -22.3343 705.517 -23.4281 705.487 -24.426C705.45 -25.4385 705.646 -26.3162 706.075 -27.059C706.518 -27.8082 707.203 -28.3826 708.128 -28.7823C709.141 -29.2201 710.117 -29.3626 711.054 -29.2097C712.006 -29.0633 712.875 -28.6455 713.661 -27.9566C714.44 -27.2823 715.087 -26.3503 715.601 -25.1605C716.108 -23.9854 716.343 -22.8758 716.306 -21.8315C716.27 -20.7872 715.978 -19.8683 715.432 -19.0747C714.9 -18.2875 714.128 -17.675 713.115 -17.2372ZM711.214 -19.5796C711.743 -19.808 712.148 -20.1401 712.431 -20.5757C712.728 -21.0178 712.892 -21.5246 712.924 -22.0961C712.956 -22.6676 712.842 -23.2545 712.582 -23.8567C712.322 -24.459 711.973 -24.9443 711.535 -25.3129C711.112 -25.6877 710.64 -25.9112 710.121 -25.9833C709.61 -26.0764 709.091 -26.0087 708.562 -25.7803C708.062 -25.5646 707.672 -25.2389 707.389 -24.8032C707.107 -24.3675 706.957 -23.8671 706.94 -23.3019C706.916 -22.7514 707.034 -22.175 707.294 -21.5728C707.554 -20.9706 707.896 -20.482 708.319 -20.1072C708.743 -19.7323 709.203 -19.4951 709.699 -19.3957C710.209 -19.3026 710.715 -19.3639 711.214 -19.5796ZM725.182 -22.4494C724.066 -21.9672 722.962 -21.7782 721.871 -21.8822C720.789 -22.0073 719.811 -22.3953 718.937 -23.0463C718.078 -23.7035 717.405 -24.5976 716.916 -25.7287C716.428 -26.8597 716.238 -27.9632 716.349 -29.0391C716.459 -30.1151 716.843 -31.0826 717.5 -31.9417C718.151 -32.8154 719.035 -33.4933 720.151 -33.9755C721.282 -34.464 722.389 -34.6457 723.471 -34.5206C724.547 -34.4102 725.515 -34.0264 726.374 -33.3691C727.233 -32.7119 727.907 -31.8177 728.395 -30.6867C728.884 -29.5557 729.073 -28.4522 728.962 -27.3762C728.852 -26.3003 728.471 -25.3254 727.82 -24.4517C727.178 -23.599 726.298 -22.9316 725.182 -22.4494ZM724.021 -25.1374C724.564 -25.3721 724.985 -25.7105 725.282 -26.1525C725.579 -26.5946 725.739 -27.0908 725.763 -27.6413C725.795 -28.2129 725.681 -28.7998 725.421 -29.402C725.161 -30.0042 724.815 -30.4823 724.383 -30.8361C723.945 -31.2046 723.456 -31.4291 722.916 -31.5095C722.39 -31.5962 721.856 -31.5222 721.312 -31.2875C720.783 -31.0591 720.363 -30.7207 720.051 -30.2723C719.754 -29.8303 719.59 -29.3235 719.558 -28.752C719.519 -28.1951 719.63 -27.6156 719.89 -27.0134C720.151 -26.4111 720.5 -25.9258 720.938 -25.5573C721.369 -25.2034 721.855 -24.9863 722.395 -24.9059C722.936 -24.8255 723.477 -24.9026 724.021 -25.1374ZM739.346 -28.881L738.297 -31.0682L736.85 -34.4172C736.565 -35.0781 736.247 -35.6119 735.897 -36.0185C735.562 -36.4314 735.186 -36.6961 734.77 -36.8126C734.362 -36.9501 733.901 -36.9078 733.387 -36.6858C732.917 -36.4828 732.535 -36.196 732.242 -35.8254C731.949 -35.4548 731.762 -34.9994 731.682 -34.4593L728.745 -34.2367C728.748 -34.7955 728.853 -35.3809 729.059 -35.9929C729.259 -36.6195 729.614 -37.2088 730.125 -37.7606C730.645 -38.3336 731.367 -38.8199 732.292 -39.2196C733.409 -39.7017 734.426 -39.8884 735.344 -39.7797C736.278 -39.6773 737.089 -39.313 737.777 -38.6867C738.474 -38.0815 739.044 -37.247 739.486 -36.1831L742.056 -30.0515L739.346 -28.881ZM736.376 -27.2843C735.054 -26.7133 733.899 -26.563 732.91 -26.8333C731.937 -27.1099 731.219 -27.7844 730.755 -28.8567C730.248 -30.0317 730.257 -31.0812 730.781 -32.0049C731.314 -32.9498 732.293 -33.7299 733.718 -34.3453L736.516 -35.5539L737.449 -33.3947L735.664 -32.6238C734.709 -32.2114 734.099 -31.8084 733.833 -31.4148C733.561 -31.0359 733.514 -30.6408 733.692 -30.2295C733.831 -29.9064 734.089 -29.7128 734.466 -29.6487C734.835 -29.5993 735.285 -29.6888 735.814 -29.9172C736.298 -30.1266 736.677 -30.4207 736.949 -30.7997C737.229 -31.1996 737.403 -31.6235 737.471 -32.0711C737.533 -32.5335 737.482 -32.9557 737.317 -33.3376L738.022 -33.6421C738.669 -32.1439 738.887 -30.8524 738.675 -29.7678C738.479 -28.6894 737.712 -27.8616 736.376 -27.2843ZM743.986 -37.7608C743.472 -38.9506 743.275 -40.033 743.394 -41.0082C743.528 -41.9897 743.872 -42.8268 744.427 -43.5196C744.996 -44.2187 745.678 -44.7396 746.471 -45.0822L747.689 -42.262C747.013 -41.9701 746.409 -41.6134 745.877 -41.1917C745.359 -40.7763 744.996 -40.3058 744.787 -39.7799C744.579 -39.2541 744.598 -38.7048 744.846 -38.1319L743.986 -37.7608ZM744.44 -31.0812L739.682 -42.0975L742.59 -43.3537L747.348 -32.3374L744.44 -31.0812ZM760.632 -38.0749L759.593 -40.0573L753.816 -53.4311L756.725 -54.6873L763.386 -39.2644L760.632 -38.0749ZM757.287 -36.3164C756.274 -35.8786 755.291 -35.733 754.339 -35.8795C753.401 -36.0323 752.54 -36.4532 751.754 -37.1422C750.968 -37.8311 750.322 -38.7632 749.814 -39.9382C749.3 -41.128 749.065 -42.2377 749.109 -43.2672C749.145 -44.3115 749.43 -45.2272 749.961 -46.0145C750.507 -46.8081 751.287 -47.4238 752.3 -47.8615C753.226 -48.2612 754.106 -48.3624 754.94 -48.1652C755.79 -47.9743 756.57 -47.5185 757.283 -46.7978C757.988 -46.0918 758.598 -45.1439 759.112 -43.9542C759.62 -42.7791 759.892 -41.6853 759.928 -40.6728C759.965 -39.6602 759.761 -38.7794 759.318 -38.0302C758.889 -37.2874 758.212 -36.7161 757.287 -36.3164ZM756.885 -39.3059C757.384 -39.5216 757.768 -39.8441 758.035 -40.2735C758.318 -40.7092 758.468 -41.2096 758.485 -41.7748C758.502 -42.34 758.381 -42.9237 758.121 -43.5259C757.861 -44.1282 757.519 -44.6167 757.096 -44.9916C756.672 -45.3664 756.208 -45.5931 755.704 -45.6715C755.208 -45.7709 754.703 -45.7096 754.189 -45.4876C753.66 -45.2592 753.254 -44.9271 752.972 -44.4914C752.683 -44.0704 752.523 -43.5742 752.491 -43.0026C752.459 -42.4311 752.573 -41.8442 752.833 -41.242C753.093 -40.6398 753.442 -40.1544 753.88 -39.7859C754.318 -39.4174 754.793 -39.1865 755.303 -39.0934C755.829 -39.0067 756.356 -39.0775 756.885 -39.3059Z" fill="white"/>
</svg>
